<svg id="visual" viewBox="0 0 900 300" width="900" height="300" xmlns="http://www.w3.org/2000/svg" xmlns:xlink="http://www.w3.org/1999/xlink" version="1.1"><rect x="0" y="0" width="900" height="300" fill="#2C3639"></rect><path d="M0 207L11.5 212C23 217 46 227 69 229C92 231 115 225 138.2 220.8C161.3 216.7 184.7 214.3 207.8 216.3C231 218.3 254 224.7 277 226.2C300 227.7 323 224.3 346 216.7C369 209 392 197 415.2 196.8C438.3 196.7 461.7 208.3 484.8 206.8C508 205.3 531 190.7 554 181.3C577 172 600 168 623 178C646 188 669 212 692.2 224C715.3 236 738.7 236 761.8 232.8C785 229.7 808 223.3 831 214.5C854 205.7 877 194.3 888.5 188.7L900 183L900 0L888.5 0C877 0 854 0 831 0C808 0 785 0 761.8 0C738.7 0 715.3 0 692.2 0C669 0 646 0 623 0C600 0 577 0 554 0C531 0 508 0 484.8 0C461.7 0 438.3 0 415.2 0C392 0 369 0 346 0C323 0 300 0 277 0C254 0 231 0 207.8 0C184.7 0 161.3 0 138.2 0C115 0 92 0 69 0C46 0 23 0 11.5 0L0 0Z" fill="#a27b5c"></path><path d="M0 197L11.5 199.2C23 201.3 46 205.7 69 204.8C92 204 115 198 138.2 185.7C161.3 173.3 184.7 154.7 207.8 154.7C231 154.7 254 173.3 277 177.5C300 181.7 323 171.3 346 170.5C369 169.7 392 178.3 415.2 180.8C438.3 183.3 461.7 179.7 484.8 179.8C508 180 531 184 554 181.2C577 178.3 600 168.7 623 170.2C646 171.7 669 184.3 692.2 180.8C715.3 177.3 738.7 157.7 761.8 152.8C785 148 808 158 831 160.8C854 163.7 877 159.3 888.5 157.2L900 155L900 0L888.5 0C877 0 854 0 831 0C808 0 785 0 761.8 0C738.7 0 715.3 0 692.2 0C669 0 646 0 623 0C600 0 577 0 554 0C531 0 508 0 484.8 0C461.7 0 438.3 0 415.2 0C392 0 369 0 346 0C323 0 300 0 277 0C254 0 231 0 207.8 0C184.7 0 161.3 0 138.2 0C115 0 92 0 69 0C46 0 23 0 11.5 0L0 0Z" fill="#ab8a6c"></path><path d="M0 159L11.5 157.7C23 156.3 46 153.7 69 146.8C92 140 115 129 138.2 126.5C161.3 124 184.7 130 207.8 129.7C231 129.3 254 122.7 277 125.5C300 128.3 323 140.7 346 144C369 147.3 392 141.7 415.2 143.3C438.3 145 461.7 154 484.8 154.5C508 155 531 147 554 147.5C577 148 600 157 623 155.5C646 154 669 142 692.2 142.3C715.3 142.7 738.7 155.3 761.8 161.2C785 167 808 166 831 160.2C854 154.3 877 143.7 888.5 138.3L900 133L900 0L888.5 0C877 0 854 0 831 0C808 0 785 0 761.8 0C738.7 0 715.3 0 692.2 0C669 0 646 0 623 0C600 0 577 0 554 0C531 0 508 0 484.8 0C461.7 0 438.3 0 415.2 0C392 0 369 0 346 0C323 0 300 0 277 0C254 0 231 0 207.8 0C184.7 0 161.3 0 138.2 0C115 0 92 0 69 0C46 0 23 0 11.5 0L0 0Z" fill="#b49a7d"></path><path d="M0 107L11.5 106.5C23 106 46 105 69 111.3C92 117.7 115 131.3 138.2 130.5C161.3 129.7 184.7 114.3 207.8 105.8C231 97.3 254 95.7 277 98.3C300 101 323 108 346 110C369 112 392 109 415.2 114.5C438.3 120 461.7 134 484.8 135C508 136 531 124 554 114.7C577 105.3 600 98.7 623 95.5C646 92.3 669 92.7 692.2 94C715.3 95.3 738.7 97.7 761.8 106.8C785 116 808 132 831 131.7C854 131.3 877 114.7 888.5 106.3L900 98L900 0L888.5 0C877 0 854 0 831 0C808 0 785 0 761.8 0C738.7 0 715.3 0 692.2 0C669 0 646 0 623 0C600 0 577 0 554 0C531 0 508 0 484.8 0C461.7 0 438.3 0 415.2 0C392 0 369 0 346 0C323 0 300 0 277 0C254 0 231 0 207.8 0C184.7 0 161.3 0 138.2 0C115 0 92 0 69 0C46 0 23 0 11.5 0L0 0Z" fill="#bda98f"></path><path d="M0 92L11.5 90.7C23 89.3 46 86.7 69 88C92 89.3 115 94.7 138.2 92.5C161.3 90.3 184.7 80.7 207.8 74.8C231 69 254 67 277 67.5C300 68 323 71 346 75.2C369 79.3 392 84.7 415.2 86C438.3 87.3 461.7 84.7 484.8 84C508 83.3 531 84.7 554 86.7C577 88.7 600 91.3 623 91.3C646 91.3 669 88.7 692.2 89.3C715.3 90 738.7 94 761.8 90.5C785 87 808 76 831 77.2C854 78.3 877 91.7 888.5 98.3L900 105L900 0L888.5 0C877 0 854 0 831 0C808 0 785 0 761.8 0C738.7 0 715.3 0 692.2 0C669 0 646 0 623 0C600 0 577 0 554 0C531 0 508 0 484.8 0C461.7 0 438.3 0 415.2 0C392 0 369 0 346 0C323 0 300 0 277 0C254 0 231 0 207.8 0C184.7 0 161.3 0 138.2 0C115 0 92 0 69 0C46 0 23 0 11.5 0L0 0Z" fill="#c7b8a2"></path><path d="M0 56L11.5 55.5C23 55 46 54 69 54.3C92 54.7 115 56.3 138.2 60C161.3 63.7 184.7 69.3 207.8 72.7C231 76 254 77 277 75.8C300 74.7 323 71.3 346 68.2C369 65 392 62 415.2 62.5C438.3 63 461.7 67 484.8 64.3C508 61.7 531 52.3 554 52.2C577 52 600 61 623 61.8C646 62.7 669 55.3 692.2 53.3C715.3 51.3 738.7 54.7 761.8 59.2C785 63.7 808 69.3 831 68C854 66.7 877 58.3 888.5 54.2L900 50L900 0L888.5 0C877 0 854 0 831 0C808 0 785 0 761.8 0C738.7 0 715.3 0 692.2 0C669 0 646 0 623 0C600 0 577 0 554 0C531 0 508 0 484.8 0C461.7 0 438.3 0 415.2 0C392 0 369 0 346 0C323 0 300 0 277 0C254 0 231 0 207.8 0C184.7 0 161.3 0 138.2 0C115 0 92 0 69 0C46 0 23 0 11.5 0L0 0Z" fill="#d1c8b5"></path><path d="M0 21L11.5 21C23 21 46 21 69 20.5C92 20 115 19 138.2 18.5C161.3 18 184.7 18 207.8 21.7C231 25.3 254 32.7 277 35C300 37.3 323 34.7 346 32C369 29.3 392 26.7 415.2 26.7C438.3 26.7 461.7 29.3 484.8 30.3C508 31.3 531 30.7 554 33.7C577 36.7 600 43.3 623 46.5C646 49.7 669 49.3 692.2 47.3C715.3 45.3 738.7 41.7 761.8 37C785 32.3 808 26.7 831 26.8C854 27 877 33 888.5 36L900 39L900 0L888.5 0C877 0 854 0 831 0C808 0 785 0 761.8 0C738.7 0 715.3 0 692.2 0C669 0 646 0 623 0C600 0 577 0 554 0C531 0 508 0 484.8 0C461.7 0 438.3 0 415.2 0C392 0 369 0 346 0C323 0 300 0 277 0C254 0 231 0 207.8 0C184.7 0 161.3 0 138.2 0C115 0 92 0 69 0C46 0 23 0 11.5 0L0 0Z" fill="#dcd7c9"></path></svg>