<svg id="visual" viewBox="0 0 900 300" width="900" height="300" xmlns="http://www.w3.org/2000/svg" xmlns:xlink="http://www.w3.org/1999/xlink" version="1.1"><rect x="0" y="0" width="900" height="300" fill="#2C3639"></rect><path d="M0 163L10 158C20 153 40 143 60 135.7C80 128.3 100 123.7 120 127.7C140 131.7 160 144.3 180 149C200 153.7 220 150.3 240 142.3C260 134.3 280 121.7 300 125C320 128.3 340 147.7 360 149.8C380 152 400 137 420 131.8C440 126.7 460 131.3 480 139.3C500 147.3 520 158.7 540 156C560 153.3 580 136.7 600 125.8C620 115 640 110 660 113.5C680 117 700 129 720 140.3C740 151.7 760 162.3 780 157.8C800 153.3 820 133.7 840 128C860 122.3 880 130.7 890 134.8L900 139L900 0L890 0C880 0 860 0 840 0C820 0 800 0 780 0C760 0 740 0 720 0C700 0 680 0 660 0C640 0 620 0 600 0C580 0 560 0 540 0C520 0 500 0 480 0C460 0 440 0 420 0C400 0 380 0 360 0C340 0 320 0 300 0C280 0 260 0 240 0C220 0 200 0 180 0C160 0 140 0 120 0C100 0 80 0 60 0C40 0 20 0 10 0L0 0Z" fill="#a27b5c"></path><path d="M0 113L10 110.2C20 107.3 40 101.7 60 100.7C80 99.7 100 103.3 120 109.3C140 115.3 160 123.7 180 124.7C200 125.7 220 119.3 240 118.7C260 118 280 123 300 120.7C320 118.3 340 108.7 360 108.8C380 109 400 119 420 119.3C440 119.7 460 110.3 480 111.2C500 112 520 123 540 126.5C560 130 580 126 600 117.5C620 109 640 96 660 95.8C680 95.7 700 108.3 720 116C740 123.7 760 126.3 780 123.8C800 121.3 820 113.7 840 115.5C860 117.3 880 128.7 890 134.3L900 140L900 0L890 0C880 0 860 0 840 0C820 0 800 0 780 0C760 0 740 0 720 0C700 0 680 0 660 0C640 0 620 0 600 0C580 0 560 0 540 0C520 0 500 0 480 0C460 0 440 0 420 0C400 0 380 0 360 0C340 0 320 0 300 0C280 0 260 0 240 0C220 0 200 0 180 0C160 0 140 0 120 0C100 0 80 0 60 0C40 0 20 0 10 0L0 0Z" fill="#af9274"></path><path d="M0 88L10 85.3C20 82.7 40 77.3 60 80.3C80 83.3 100 94.7 120 101C140 107.3 160 108.7 180 102.5C200 96.3 220 82.7 240 76.7C260 70.7 280 72.3 300 73C320 73.7 340 73.3 360 75.8C380 78.3 400 83.7 420 85C440 86.3 460 83.7 480 83.8C500 84 520 87 540 87.5C560 88 580 86 600 82.7C620 79.3 640 74.7 660 71C680 67.3 700 64.7 720 65.5C740 66.3 760 70.7 780 78C800 85.3 820 95.7 840 94.3C860 93 880 80 890 73.5L900 67L900 0L890 0C880 0 860 0 840 0C820 0 800 0 780 0C760 0 740 0 720 0C700 0 680 0 660 0C640 0 620 0 600 0C580 0 560 0 540 0C520 0 500 0 480 0C460 0 440 0 420 0C400 0 380 0 360 0C340 0 320 0 300 0C280 0 260 0 240 0C220 0 200 0 180 0C160 0 140 0 120 0C100 0 80 0 60 0C40 0 20 0 10 0L0 0Z" fill="#bda98f"></path><path d="M0 51L10 50.2C20 49.3 40 47.7 60 49C80 50.3 100 54.7 120 55.7C140 56.7 160 54.3 180 55.8C200 57.3 220 62.7 240 60.5C260 58.3 280 48.7 300 44.7C320 40.7 340 42.3 360 47.2C380 52 400 60 420 60.3C440 60.7 460 53.3 480 55.5C500 57.7 520 69.3 540 74.5C560 79.7 580 78.3 600 74.2C620 70 640 63 660 58.2C680 53.3 700 50.7 720 54C740 57.3 760 66.7 780 66C800 65.3 820 54.7 840 50.3C860 46 880 48 890 49L900 50L900 0L890 0C880 0 860 0 840 0C820 0 800 0 780 0C760 0 740 0 720 0C700 0 680 0 660 0C640 0 620 0 600 0C580 0 560 0 540 0C520 0 500 0 480 0C460 0 440 0 420 0C400 0 380 0 360 0C340 0 320 0 300 0C280 0 260 0 240 0C220 0 200 0 180 0C160 0 140 0 120 0C100 0 80 0 60 0C40 0 20 0 10 0L0 0Z" fill="#ccc0ab"></path><path d="M0 39L10 38.3C20 37.7 40 36.3 60 36.7C80 37 100 39 120 37.5C140 36 160 31 180 32.2C200 33.3 220 40.7 240 40C260 39.3 280 30.7 300 30.5C320 30.3 340 38.7 360 41C380 43.3 400 39.7 420 37.5C440 35.3 460 34.7 480 35.7C500 36.7 520 39.3 540 37.5C560 35.7 580 29.3 600 29.5C620 29.7 640 36.3 660 36C680 35.7 700 28.3 720 26.3C740 24.3 760 27.7 780 32.3C800 37 820 43 840 44C860 45 880 41 890 39L900 37L900 0L890 0C880 0 860 0 840 0C820 0 800 0 780 0C760 0 740 0 720 0C700 0 680 0 660 0C640 0 620 0 600 0C580 0 560 0 540 0C520 0 500 0 480 0C460 0 440 0 420 0C400 0 380 0 360 0C340 0 320 0 300 0C280 0 260 0 240 0C220 0 200 0 180 0C160 0 140 0 120 0C100 0 80 0 60 0C40 0 20 0 10 0L0 0Z" fill="#dcd7c9"></path></svg>