<svg id="visual" viewBox="0 0 900 300" width="900" height="300" xmlns="http://www.w3.org/2000/svg" xmlns:xlink="http://www.w3.org/1999/xlink" version="1.1"><rect x="0" y="0" width="900" height="300" fill="#2C3639"></rect><path d="M0 168L13.7 178.5C27.3 189 54.7 210 82 217.7C109.3 225.3 136.7 219.7 163.8 219.5C191 219.3 218 224.7 245.2 219.7C272.3 214.7 299.7 199.3 327 198.3C354.3 197.3 381.7 210.7 409 218.5C436.3 226.3 463.7 228.7 491 220.3C518.3 212 545.7 193 573 193.2C600.3 193.3 627.7 212.7 654.8 223.3C682 234 709 236 736.2 232C763.3 228 790.7 218 818 212.7C845.3 207.3 872.7 206.7 886.3 206.3L900 206L900 0L886.3 0C872.7 0 845.3 0 818 0C790.7 0 763.3 0 736.2 0C709 0 682 0 654.8 0C627.7 0 600.3 0 573 0C545.7 0 518.3 0 491 0C463.7 0 436.3 0 409 0C381.7 0 354.3 0 327 0C299.7 0 272.3 0 245.2 0C218 0 191 0 163.8 0C136.7 0 109.3 0 82 0C54.7 0 27.3 0 13.7 0L0 0Z" fill="#a27b5c"></path><path d="M0 187L13.7 187.8C27.3 188.7 54.7 190.3 82 182.7C109.3 175 136.7 158 163.8 148.5C191 139 218 137 245.2 136.8C272.3 136.7 299.7 138.3 327 138.8C354.3 139.3 381.7 138.7 409 149.3C436.3 160 463.7 182 491 181.5C518.3 181 545.7 158 573 147.7C600.3 137.3 627.7 139.7 654.8 151.2C682 162.7 709 183.3 736.2 185C763.3 186.7 790.7 169.3 818 167.2C845.3 165 872.7 178 886.3 184.5L900 191L900 0L886.3 0C872.7 0 845.3 0 818 0C790.7 0 763.3 0 736.2 0C709 0 682 0 654.8 0C627.7 0 600.3 0 573 0C545.7 0 518.3 0 491 0C463.7 0 436.3 0 409 0C381.7 0 354.3 0 327 0C299.7 0 272.3 0 245.2 0C218 0 191 0 163.8 0C136.7 0 109.3 0 82 0C54.7 0 27.3 0 13.7 0L0 0Z" fill="#ab8a6c"></path><path d="M0 155L13.7 153.7C27.3 152.3 54.7 149.7 82 142.7C109.3 135.7 136.7 124.3 163.8 126.7C191 129 218 145 245.2 150.5C272.3 156 299.7 151 327 146.3C354.3 141.7 381.7 137.3 409 139C436.3 140.7 463.7 148.3 491 153C518.3 157.7 545.7 159.3 573 153.3C600.3 147.3 627.7 133.7 654.8 126.2C682 118.7 709 117.3 736.2 119.8C763.3 122.3 790.7 128.7 818 136.8C845.3 145 872.7 155 886.3 160L900 165L900 0L886.3 0C872.7 0 845.3 0 818 0C790.7 0 763.3 0 736.2 0C709 0 682 0 654.8 0C627.7 0 600.3 0 573 0C545.7 0 518.3 0 491 0C463.7 0 436.3 0 409 0C381.7 0 354.3 0 327 0C299.7 0 272.3 0 245.2 0C218 0 191 0 163.8 0C136.7 0 109.3 0 82 0C54.7 0 27.3 0 13.7 0L0 0Z" fill="#b49a7d"></path><path d="M0 129L13.7 127.7C27.3 126.3 54.7 123.7 82 117.2C109.3 110.7 136.7 100.3 163.8 99.3C191 98.3 218 106.7 245.2 108.2C272.3 109.7 299.7 104.3 327 102.7C354.3 101 381.7 103 409 102.7C436.3 102.3 463.7 99.7 491 107.7C518.3 115.7 545.7 134.3 573 136.2C600.3 138 627.7 123 654.8 118.7C682 114.3 709 120.7 736.2 127.5C763.3 134.3 790.7 141.7 818 142.8C845.3 144 872.7 139 886.3 136.5L900 134L900 0L886.3 0C872.7 0 845.3 0 818 0C790.7 0 763.3 0 736.2 0C709 0 682 0 654.8 0C627.7 0 600.3 0 573 0C545.7 0 518.3 0 491 0C463.7 0 436.3 0 409 0C381.7 0 354.3 0 327 0C299.7 0 272.3 0 245.2 0C218 0 191 0 163.8 0C136.7 0 109.3 0 82 0C54.7 0 27.3 0 13.7 0L0 0Z" fill="#bda98f"></path><path d="M0 101L13.7 98C27.3 95 54.7 89 82 85.7C109.3 82.3 136.7 81.7 163.8 87.7C191 93.7 218 106.3 245.2 106.2C272.3 106 299.7 93 327 87.8C354.3 82.7 381.7 85.3 409 84C436.3 82.7 463.7 77.3 491 81C518.3 84.7 545.7 97.3 573 104.2C600.3 111 627.7 112 654.8 105.2C682 98.3 709 83.7 736.2 78.2C763.3 72.7 790.7 76.3 818 78.5C845.3 80.7 872.7 81.3 886.3 81.7L900 82L900 0L886.3 0C872.7 0 845.3 0 818 0C790.7 0 763.3 0 736.2 0C709 0 682 0 654.8 0C627.7 0 600.3 0 573 0C545.7 0 518.3 0 491 0C463.7 0 436.3 0 409 0C381.7 0 354.3 0 327 0C299.7 0 272.3 0 245.2 0C218 0 191 0 163.8 0C136.7 0 109.3 0 82 0C54.7 0 27.3 0 13.7 0L0 0Z" fill="#c7b8a2"></path><path d="M0 66L13.7 65.2C27.3 64.3 54.7 62.7 82 60.7C109.3 58.7 136.7 56.3 163.8 56.7C191 57 218 60 245.2 60.5C272.3 61 299.7 59 327 61.3C354.3 63.7 381.7 70.3 409 71.8C436.3 73.3 463.7 69.7 491 64.5C518.3 59.3 545.7 52.7 573 56.3C600.3 60 627.7 74 654.8 78.8C682 83.7 709 79.3 736.2 74.3C763.3 69.3 790.7 63.7 818 59.5C845.3 55.3 872.7 52.7 886.3 51.3L900 50L900 0L886.3 0C872.7 0 845.3 0 818 0C790.7 0 763.3 0 736.2 0C709 0 682 0 654.8 0C627.7 0 600.3 0 573 0C545.7 0 518.3 0 491 0C463.7 0 436.3 0 409 0C381.7 0 354.3 0 327 0C299.7 0 272.3 0 245.2 0C218 0 191 0 163.8 0C136.7 0 109.3 0 82 0C54.7 0 27.3 0 13.7 0L0 0Z" fill="#d1c8b5"></path><path d="M0 39L13.7 39C27.3 39 54.7 39 82 37.8C109.3 36.7 136.7 34.3 163.8 35.2C191 36 218 40 245.2 43C272.3 46 299.7 48 327 44.3C354.3 40.7 381.7 31.3 409 27.5C436.3 23.7 463.7 25.3 491 29.2C518.3 33 545.7 39 573 39.3C600.3 39.7 627.7 34.3 654.8 30C682 25.7 709 22.3 736.2 26C763.3 29.7 790.7 40.3 818 41.5C845.3 42.7 872.7 34.3 886.3 30.2L900 26L900 0L886.3 0C872.7 0 845.3 0 818 0C790.7 0 763.3 0 736.2 0C709 0 682 0 654.8 0C627.7 0 600.3 0 573 0C545.7 0 518.3 0 491 0C463.7 0 436.3 0 409 0C381.7 0 354.3 0 327 0C299.7 0 272.3 0 245.2 0C218 0 191 0 163.8 0C136.7 0 109.3 0 82 0C54.7 0 27.3 0 13.7 0L0 0Z" fill="#dcd7c9"></path></svg>