<svg id="visual" viewBox="0 0 900 300" width="900" height="300" xmlns="http://www.w3.org/2000/svg" xmlns:xlink="http://www.w3.org/1999/xlink" version="1.1"><rect x="0" y="0" width="900" height="300" fill="#2C3639"></rect><path d="M0 181L10.7 176C21.3 171 42.7 161 64.2 158.3C85.7 155.7 107.3 160.3 128.8 162.7C150.3 165 171.7 165 193 159C214.3 153 235.7 141 257 140C278.3 139 299.7 149 321.2 156.5C342.7 164 364.3 169 385.8 166.7C407.3 164.3 428.7 154.7 450 158C471.3 161.3 492.7 177.7 514.2 182.3C535.7 187 557.3 180 578.8 179.2C600.3 178.3 621.7 183.7 643 179.7C664.3 175.7 685.7 162.3 707 159C728.3 155.7 749.7 162.3 771.2 159.3C792.7 156.3 814.3 143.7 835.8 138.2C857.3 132.7 878.7 134.3 889.3 135.2L900 136L900 301L889.3 301C878.7 301 857.3 301 835.8 301C814.3 301 792.7 301 771.2 301C749.7 301 728.3 301 707 301C685.7 301 664.3 301 643 301C621.7 301 600.3 301 578.8 301C557.3 301 535.7 301 514.2 301C492.7 301 471.3 301 450 301C428.7 301 407.3 301 385.8 301C364.3 301 342.7 301 321.2 301C299.7 301 278.3 301 257 301C235.7 301 214.3 301 193 301C171.7 301 150.3 301 128.8 301C107.3 301 85.7 301 64.2 301C42.7 301 21.3 301 10.7 301L0 301Z" fill="#a27b5c"></path><path d="M0 171L10.7 173C21.3 175 42.7 179 64.2 184.2C85.7 189.3 107.3 195.7 128.8 199C150.3 202.3 171.7 202.7 193 195C214.3 187.3 235.7 171.7 257 173.3C278.3 175 299.7 194 321.2 203C342.7 212 364.3 211 385.8 208.7C407.3 206.3 428.7 202.7 450 194.7C471.3 186.7 492.7 174.3 514.2 174C535.7 173.7 557.3 185.3 578.8 184.5C600.3 183.7 621.7 170.3 643 168.8C664.3 167.3 685.7 177.7 707 185C728.3 192.3 749.7 196.7 771.2 196.2C792.7 195.7 814.3 190.3 835.8 182.8C857.3 175.3 878.7 165.7 889.3 160.8L900 156L900 301L889.3 301C878.7 301 857.3 301 835.8 301C814.3 301 792.7 301 771.2 301C749.7 301 728.3 301 707 301C685.7 301 664.3 301 643 301C621.7 301 600.3 301 578.8 301C557.3 301 535.7 301 514.2 301C492.7 301 471.3 301 450 301C428.7 301 407.3 301 385.8 301C364.3 301 342.7 301 321.2 301C299.7 301 278.3 301 257 301C235.7 301 214.3 301 193 301C171.7 301 150.3 301 128.8 301C107.3 301 85.7 301 64.2 301C42.7 301 21.3 301 10.7 301L0 301Z" fill="#af9274"></path><path d="M0 200L10.7 202.5C21.3 205 42.7 210 64.2 213.8C85.7 217.7 107.3 220.3 128.8 216.2C150.3 212 171.7 201 193 196.2C214.3 191.3 235.7 192.7 257 193.5C278.3 194.3 299.7 194.7 321.2 193.7C342.7 192.7 364.3 190.3 385.8 189.7C407.3 189 428.7 190 450 196.5C471.3 203 492.7 215 514.2 215.2C535.7 215.3 557.3 203.7 578.8 201.7C600.3 199.7 621.7 207.3 643 209.7C664.3 212 685.7 209 707 206C728.3 203 749.7 200 771.2 200.8C792.7 201.7 814.3 206.3 835.8 208C857.3 209.7 878.7 208.3 889.3 207.7L900 207L900 301L889.3 301C878.7 301 857.3 301 835.8 301C814.3 301 792.7 301 771.2 301C749.7 301 728.3 301 707 301C685.7 301 664.3 301 643 301C621.7 301 600.3 301 578.8 301C557.3 301 535.7 301 514.2 301C492.7 301 471.3 301 450 301C428.7 301 407.3 301 385.8 301C364.3 301 342.7 301 321.2 301C299.7 301 278.3 301 257 301C235.7 301 214.3 301 193 301C171.7 301 150.3 301 128.8 301C107.3 301 85.7 301 64.2 301C42.7 301 21.3 301 10.7 301L0 301Z" fill="#bda98f"></path><path d="M0 227L10.7 230.3C21.3 233.7 42.7 240.3 64.2 242.2C85.7 244 107.3 241 128.8 242.2C150.3 243.3 171.7 248.7 193 245.5C214.3 242.3 235.7 230.7 257 230C278.3 229.3 299.7 239.7 321.2 245.7C342.7 251.7 364.3 253.3 385.8 254C407.3 254.7 428.7 254.3 450 248.5C471.3 242.7 492.7 231.3 514.2 225C535.7 218.7 557.3 217.3 578.8 217.3C600.3 217.3 621.7 218.7 643 225.3C664.3 232 685.7 244 707 244.3C728.3 244.7 749.7 233.3 771.2 228C792.7 222.7 814.3 223.3 835.8 226.7C857.3 230 878.7 236 889.3 239L900 242L900 301L889.3 301C878.7 301 857.3 301 835.8 301C814.3 301 792.7 301 771.2 301C749.7 301 728.3 301 707 301C685.7 301 664.3 301 643 301C621.7 301 600.3 301 578.8 301C557.3 301 535.7 301 514.2 301C492.7 301 471.3 301 450 301C428.7 301 407.3 301 385.8 301C364.3 301 342.7 301 321.2 301C299.7 301 278.3 301 257 301C235.7 301 214.3 301 193 301C171.7 301 150.3 301 128.8 301C107.3 301 85.7 301 64.2 301C42.7 301 21.3 301 10.7 301L0 301Z" fill="#ccc0ab"></path><path d="M0 280L10.7 274.8C21.3 269.7 42.7 259.3 64.2 257.8C85.7 256.3 107.3 263.7 128.8 263.5C150.3 263.3 171.7 255.7 193 254C214.3 252.3 235.7 256.7 257 262C278.3 267.3 299.7 273.7 321.2 271.8C342.7 270 364.3 260 385.8 260C407.3 260 428.7 270 450 273.3C471.3 276.7 492.7 273.3 514.2 270.8C535.7 268.3 557.3 266.7 578.8 267.2C600.3 267.7 621.7 270.3 643 272.2C664.3 274 685.7 275 707 271C728.3 267 749.7 258 771.2 258.7C792.7 259.3 814.3 269.7 835.8 272.2C857.3 274.7 878.7 269.3 889.3 266.7L900 264L900 301L889.3 301C878.7 301 857.3 301 835.8 301C814.3 301 792.7 301 771.2 301C749.7 301 728.3 301 707 301C685.7 301 664.3 301 643 301C621.7 301 600.3 301 578.8 301C557.3 301 535.7 301 514.2 301C492.7 301 471.3 301 450 301C428.7 301 407.3 301 385.8 301C364.3 301 342.7 301 321.2 301C299.7 301 278.3 301 257 301C235.7 301 214.3 301 193 301C171.7 301 150.3 301 128.8 301C107.3 301 85.7 301 64.2 301C42.7 301 21.3 301 10.7 301L0 301Z" fill="#dcd7c9"></path></svg>