<svg id="visual" viewBox="0 0 900 300" width="900" height="300" xmlns="http://www.w3.org/2000/svg" xmlns:xlink="http://www.w3.org/1999/xlink" version="1.1"><rect x="0" y="0" width="900" height="300" fill="#2C3639"></rect><path d="M0 53L13.7 62.2C27.3 71.3 54.7 89.7 82 91.5C109.3 93.3 136.7 78.7 163.8 78.8C191 79 218 94 245.2 95.7C272.3 97.3 299.7 85.7 327 79.3C354.3 73 381.7 72 409 79.3C436.3 86.7 463.7 102.3 491 102.5C518.3 102.7 545.7 87.3 573 85.5C600.3 83.7 627.7 95.3 654.8 96C682 96.7 709 86.3 736.2 88.2C763.3 90 790.7 104 818 99.3C845.3 94.7 872.7 71.3 886.3 59.7L900 48L900 301L886.3 301C872.7 301 845.3 301 818 301C790.7 301 763.3 301 736.2 301C709 301 682 301 654.8 301C627.7 301 600.3 301 573 301C545.7 301 518.3 301 491 301C463.7 301 436.3 301 409 301C381.7 301 354.3 301 327 301C299.7 301 272.3 301 245.2 301C218 301 191 301 163.8 301C136.7 301 109.3 301 82 301C54.7 301 27.3 301 13.7 301L0 301Z" fill="#a27b5c"></path><path d="M0 88L13.7 96C27.3 104 54.7 120 82 126.2C109.3 132.3 136.7 128.7 163.8 130.8C191 133 218 141 245.2 136.2C272.3 131.3 299.7 113.7 327 109.2C354.3 104.7 381.7 113.3 409 123.5C436.3 133.7 463.7 145.3 491 150.5C518.3 155.7 545.7 154.3 573 146.7C600.3 139 627.7 125 654.8 116.2C682 107.3 709 103.7 736.2 109.2C763.3 114.7 790.7 129.3 818 135.3C845.3 141.3 872.7 138.7 886.3 137.3L900 136L900 301L886.3 301C872.7 301 845.3 301 818 301C790.7 301 763.3 301 736.2 301C709 301 682 301 654.8 301C627.7 301 600.3 301 573 301C545.7 301 518.3 301 491 301C463.7 301 436.3 301 409 301C381.7 301 354.3 301 327 301C299.7 301 272.3 301 245.2 301C218 301 191 301 163.8 301C136.7 301 109.3 301 82 301C54.7 301 27.3 301 13.7 301L0 301Z" fill="#ab8a6c"></path><path d="M0 141L13.7 145.3C27.3 149.7 54.7 158.3 82 158.2C109.3 158 136.7 149 163.8 151.7C191 154.3 218 168.7 245.2 167.5C272.3 166.3 299.7 149.7 327 144.3C354.3 139 381.7 145 409 143.2C436.3 141.3 463.7 131.7 491 132.7C518.3 133.7 545.7 145.3 573 149.3C600.3 153.3 627.7 149.7 654.8 147C682 144.3 709 142.7 736.2 140C763.3 137.3 790.7 133.7 818 133.7C845.3 133.7 872.7 137.3 886.3 139.2L900 141L900 301L886.3 301C872.7 301 845.3 301 818 301C790.7 301 763.3 301 736.2 301C709 301 682 301 654.8 301C627.7 301 600.3 301 573 301C545.7 301 518.3 301 491 301C463.7 301 436.3 301 409 301C381.7 301 354.3 301 327 301C299.7 301 272.3 301 245.2 301C218 301 191 301 163.8 301C136.7 301 109.3 301 82 301C54.7 301 27.3 301 13.7 301L0 301Z" fill="#b49a7d"></path><path d="M0 144L13.7 153.7C27.3 163.3 54.7 182.7 82 188.8C109.3 195 136.7 188 163.8 180.3C191 172.7 218 164.3 245.2 168.2C272.3 172 299.7 188 327 190C354.3 192 381.7 180 409 180.3C436.3 180.7 463.7 193.3 491 193.3C518.3 193.3 545.7 180.7 573 170.3C600.3 160 627.7 152 654.8 156.7C682 161.3 709 178.7 736.2 187.7C763.3 196.7 790.7 197.3 818 198.8C845.3 200.3 872.7 202.7 886.3 203.8L900 205L900 301L886.3 301C872.7 301 845.3 301 818 301C790.7 301 763.3 301 736.2 301C709 301 682 301 654.8 301C627.7 301 600.3 301 573 301C545.7 301 518.3 301 491 301C463.7 301 436.3 301 409 301C381.7 301 354.3 301 327 301C299.7 301 272.3 301 245.2 301C218 301 191 301 163.8 301C136.7 301 109.3 301 82 301C54.7 301 27.3 301 13.7 301L0 301Z" fill="#bda98f"></path><path d="M0 202L13.7 198C27.3 194 54.7 186 82 187.5C109.3 189 136.7 200 163.8 203.5C191 207 218 203 245.2 201C272.3 199 299.7 199 327 196.7C354.3 194.3 381.7 189.7 409 194.3C436.3 199 463.7 213 491 215.2C518.3 217.3 545.7 207.7 573 208.7C600.3 209.7 627.7 221.3 654.8 225C682 228.7 709 224.3 736.2 223.8C763.3 223.3 790.7 226.7 818 225.2C845.3 223.7 872.7 217.3 886.3 214.2L900 211L900 301L886.3 301C872.7 301 845.3 301 818 301C790.7 301 763.3 301 736.2 301C709 301 682 301 654.8 301C627.7 301 600.3 301 573 301C545.7 301 518.3 301 491 301C463.7 301 436.3 301 409 301C381.7 301 354.3 301 327 301C299.7 301 272.3 301 245.2 301C218 301 191 301 163.8 301C136.7 301 109.3 301 82 301C54.7 301 27.3 301 13.7 301L0 301Z" fill="#c7b8a2"></path><path d="M0 237L13.7 233.3C27.3 229.7 54.7 222.3 82 220.8C109.3 219.3 136.7 223.7 163.8 227C191 230.3 218 232.7 245.2 233C272.3 233.3 299.7 231.7 327 229.3C354.3 227 381.7 224 409 225.8C436.3 227.7 463.7 234.3 491 237.7C518.3 241 545.7 241 573 239.8C600.3 238.7 627.7 236.3 654.8 237.3C682 238.3 709 242.7 736.2 246.3C763.3 250 790.7 253 818 249.8C845.3 246.7 872.7 237.3 886.3 232.7L900 228L900 301L886.3 301C872.7 301 845.3 301 818 301C790.7 301 763.3 301 736.2 301C709 301 682 301 654.8 301C627.7 301 600.3 301 573 301C545.7 301 518.3 301 491 301C463.7 301 436.3 301 409 301C381.7 301 354.3 301 327 301C299.7 301 272.3 301 245.2 301C218 301 191 301 163.8 301C136.7 301 109.3 301 82 301C54.7 301 27.3 301 13.7 301L0 301Z" fill="#d1c8b5"></path><path d="M0 246L13.7 245.7C27.3 245.3 54.7 244.7 82 247.3C109.3 250 136.7 256 163.8 257.7C191 259.3 218 256.7 245.2 255.5C272.3 254.3 299.7 254.7 327 256.5C354.3 258.3 381.7 261.7 409 260.5C436.3 259.3 463.7 253.7 491 253.5C518.3 253.3 545.7 258.7 573 260.5C600.3 262.3 627.7 260.7 654.8 260.3C682 260 709 261 736.2 262C763.3 263 790.7 264 818 261.5C845.3 259 872.7 253 886.3 250L900 247L900 301L886.3 301C872.7 301 845.3 301 818 301C790.7 301 763.3 301 736.2 301C709 301 682 301 654.8 301C627.7 301 600.3 301 573 301C545.7 301 518.3 301 491 301C463.7 301 436.3 301 409 301C381.7 301 354.3 301 327 301C299.7 301 272.3 301 245.2 301C218 301 191 301 163.8 301C136.7 301 109.3 301 82 301C54.7 301 27.3 301 13.7 301L0 301Z" fill="#dcd7c9"></path></svg>