<svg id="visual" viewBox="0 0 900 300" width="900" height="300" xmlns="http://www.w3.org/2000/svg" xmlns:xlink="http://www.w3.org/1999/xlink" version="1.1"><rect x="0" y="0" width="900" height="300" fill="#2C3333"></rect><path d="M0 58L21.5 63.2C43 68.3 86 78.7 128.8 83.3C171.7 88 214.3 87 257.2 80.2C300 73.3 343 60.7 385.8 57.3C428.7 54 471.3 60 514.2 67.2C557 74.3 600 82.7 642.8 79.5C685.7 76.3 728.3 61.7 771.2 64.7C814 67.7 857 88.3 878.5 98.7L900 109L900 301L878.5 301C857 301 814 301 771.2 301C728.3 301 685.7 301 642.8 301C600 301 557 301 514.2 301C471.3 301 428.7 301 385.8 301C343 301 300 301 257.2 301C214.3 301 171.7 301 128.8 301C86 301 43 301 21.5 301L0 301Z" fill="#cbe4de"></path><path d="M0 91L21.5 91.8C43 92.7 86 94.3 128.8 101.7C171.7 109 214.3 122 257.2 130.2C300 138.3 343 141.7 385.8 133.7C428.7 125.7 471.3 106.3 514.2 107.5C557 108.7 600 130.3 642.8 130.8C685.7 131.3 728.3 110.7 771.2 110.7C814 110.7 857 131.3 878.5 141.7L900 152L900 301L878.5 301C857 301 814 301 771.2 301C728.3 301 685.7 301 642.8 301C600 301 557 301 514.2 301C471.3 301 428.7 301 385.8 301C343 301 300 301 257.2 301C214.3 301 171.7 301 128.8 301C86 301 43 301 21.5 301L0 301Z" fill="#b3cdc8"></path><path d="M0 125L21.5 127.8C43 130.7 86 136.3 128.8 135.5C171.7 134.7 214.3 127.3 257.2 124.7C300 122 343 124 385.8 127C428.7 130 471.3 134 514.2 142.3C557 150.7 600 163.3 642.8 167C685.7 170.7 728.3 165.3 771.2 160C814 154.7 857 149.3 878.5 146.7L900 144L900 301L878.5 301C857 301 814 301 771.2 301C728.3 301 685.7 301 642.8 301C600 301 557 301 514.2 301C471.3 301 428.7 301 385.8 301C343 301 300 301 257.2 301C214.3 301 171.7 301 128.8 301C86 301 43 301 21.5 301L0 301Z" fill="#9bb7b2"></path><path d="M0 152L21.5 159.5C43 167 86 182 128.8 189.2C171.7 196.3 214.3 195.7 257.2 193.7C300 191.7 343 188.3 385.8 187C428.7 185.7 471.3 186.3 514.2 186.3C557 186.3 600 185.7 642.8 177.3C685.7 169 728.3 153 771.2 148.8C814 144.7 857 152.3 878.5 156.2L900 160L900 301L878.5 301C857 301 814 301 771.2 301C728.3 301 685.7 301 642.8 301C600 301 557 301 514.2 301C471.3 301 428.7 301 385.8 301C343 301 300 301 257.2 301C214.3 301 171.7 301 128.8 301C86 301 43 301 21.5 301L0 301Z" fill="#84a19d"></path><path d="M0 163L21.5 171.5C43 180 86 197 128.8 205C171.7 213 214.3 212 257.2 204.5C300 197 343 183 385.8 184C428.7 185 471.3 201 514.2 205.7C557 210.3 600 203.7 642.8 201.8C685.7 200 728.3 203 771.2 201.3C814 199.7 857 193.3 878.5 190.2L900 187L900 301L878.5 301C857 301 814 301 771.2 301C728.3 301 685.7 301 642.8 301C600 301 557 301 514.2 301C471.3 301 428.7 301 385.8 301C343 301 300 301 257.2 301C214.3 301 171.7 301 128.8 301C86 301 43 301 21.5 301L0 301Z" fill="#6e8b89"></path><path d="M0 211L21.5 213.2C43 215.3 86 219.7 128.8 220.3C171.7 221 214.3 218 257.2 219.2C300 220.3 343 225.7 385.8 226.3C428.7 227 471.3 223 514.2 217C557 211 600 203 642.8 202.2C685.7 201.3 728.3 207.7 771.2 214.3C814 221 857 228 878.5 231.5L900 235L900 301L878.5 301C857 301 814 301 771.2 301C728.3 301 685.7 301 642.8 301C600 301 557 301 514.2 301C471.3 301 428.7 301 385.8 301C343 301 300 301 257.2 301C214.3 301 171.7 301 128.8 301C86 301 43 301 21.5 301L0 301Z" fill="#587775"></path><path d="M0 224L21.5 228.2C43 232.3 86 240.7 128.8 241.5C171.7 242.3 214.3 235.7 257.2 232C300 228.3 343 227.7 385.8 231.3C428.7 235 471.3 243 514.2 243.7C557 244.3 600 237.7 642.8 234.7C685.7 231.7 728.3 232.3 771.2 237.3C814 242.3 857 251.7 878.5 256.3L900 261L900 301L878.5 301C857 301 814 301 771.2 301C728.3 301 685.7 301 642.8 301C600 301 557 301 514.2 301C471.3 301 428.7 301 385.8 301C343 301 300 301 257.2 301C214.3 301 171.7 301 128.8 301C86 301 43 301 21.5 301L0 301Z" fill="#436262"></path><path d="M0 261L21.5 262.3C43 263.7 86 266.3 128.8 265.5C171.7 264.7 214.3 260.3 257.2 260C300 259.7 343 263.3 385.8 265C428.7 266.7 471.3 266.3 514.2 267.8C557 269.3 600 272.7 642.8 270.8C685.7 269 728.3 262 771.2 259.7C814 257.3 857 259.7 878.5 260.8L900 262L900 301L878.5 301C857 301 814 301 771.2 301C728.3 301 685.7 301 642.8 301C600 301 557 301 514.2 301C471.3 301 428.7 301 385.8 301C343 301 300 301 257.2 301C214.3 301 171.7 301 128.8 301C86 301 43 301 21.5 301L0 301Z" fill="#2e4f4f"></path></svg>