<svg id="visual" viewBox="0 0 900 300" width="900" height="300" xmlns="http://www.w3.org/2000/svg" xmlns:xlink="http://www.w3.org/1999/xlink" version="1.1"><rect x="0" y="0" width="900" height="300" fill="#2C3333"></rect><path d="M0 210L21.5 206.7C43 203.3 86 196.7 128.8 198.8C171.7 201 214.3 212 257.2 209.8C300 207.7 343 192.3 385.8 197.2C428.7 202 471.3 227 514.2 232.5C557 238 600 224 642.8 218.5C685.7 213 728.3 216 771.2 223C814 230 857 241 878.5 246.5L900 252L900 0L878.5 0C857 0 814 0 771.2 0C728.3 0 685.7 0 642.8 0C600 0 557 0 514.2 0C471.3 0 428.7 0 385.8 0C343 0 300 0 257.2 0C214.3 0 171.7 0 128.8 0C86 0 43 0 21.5 0L0 0Z" fill="#cbe4de"></path><path d="M0 139L21.5 143.2C43 147.3 86 155.7 128.8 165.5C171.7 175.3 214.3 186.7 257.2 182.8C300 179 343 160 385.8 152.3C428.7 144.7 471.3 148.3 514.2 148C557 147.7 600 143.3 642.8 152.5C685.7 161.7 728.3 184.3 771.2 196.5C814 208.7 857 210.3 878.5 211.2L900 212L900 0L878.5 0C857 0 814 0 771.2 0C728.3 0 685.7 0 642.8 0C600 0 557 0 514.2 0C471.3 0 428.7 0 385.8 0C343 0 300 0 257.2 0C214.3 0 171.7 0 128.8 0C86 0 43 0 21.5 0L0 0Z" fill="#afc9c4"></path><path d="M0 173L21.5 170.3C43 167.7 86 162.3 128.8 156.5C171.7 150.7 214.3 144.3 257.2 147.5C300 150.7 343 163.3 385.8 169.3C428.7 175.3 471.3 174.7 514.2 166.2C557 157.7 600 141.3 642.8 132C685.7 122.7 728.3 120.3 771.2 126.3C814 132.3 857 146.7 878.5 153.8L900 161L900 0L878.5 0C857 0 814 0 771.2 0C728.3 0 685.7 0 642.8 0C600 0 557 0 514.2 0C471.3 0 428.7 0 385.8 0C343 0 300 0 257.2 0C214.3 0 171.7 0 128.8 0C86 0 43 0 21.5 0L0 0Z" fill="#94afab"></path><path d="M0 130L21.5 124.3C43 118.7 86 107.3 128.8 105.5C171.7 103.7 214.3 111.3 257.2 112.2C300 113 343 107 385.8 103.7C428.7 100.3 471.3 99.7 514.2 107.2C557 114.7 600 130.3 642.8 133.3C685.7 136.3 728.3 126.7 771.2 123.2C814 119.7 857 122.3 878.5 123.7L900 125L900 0L878.5 0C857 0 814 0 771.2 0C728.3 0 685.7 0 642.8 0C600 0 557 0 514.2 0C471.3 0 428.7 0 385.8 0C343 0 300 0 257.2 0C214.3 0 171.7 0 128.8 0C86 0 43 0 21.5 0L0 0Z" fill="#799693"></path><path d="M0 75L21.5 81.8C43 88.7 86 102.3 128.8 102.2C171.7 102 214.3 88 257.2 86.2C300 84.3 343 94.7 385.8 96.3C428.7 98 471.3 91 514.2 91.2C557 91.3 600 98.7 642.8 96.2C685.7 93.7 728.3 81.3 771.2 75C814 68.7 857 68.3 878.5 68.2L900 68L900 0L878.5 0C857 0 814 0 771.2 0C728.3 0 685.7 0 642.8 0C600 0 557 0 514.2 0C471.3 0 428.7 0 385.8 0C343 0 300 0 257.2 0C214.3 0 171.7 0 128.8 0C86 0 43 0 21.5 0L0 0Z" fill="#5f7e7b"></path><path d="M0 82L21.5 82.8C43 83.7 86 85.3 128.8 85.5C171.7 85.7 214.3 84.3 257.2 81.3C300 78.3 343 73.7 385.8 69C428.7 64.3 471.3 59.7 514.2 60.7C557 61.7 600 68.3 642.8 73.2C685.7 78 728.3 81 771.2 77.3C814 73.7 857 63.3 878.5 58.2L900 53L900 0L878.5 0C857 0 814 0 771.2 0C728.3 0 685.7 0 642.8 0C600 0 557 0 514.2 0C471.3 0 428.7 0 385.8 0C343 0 300 0 257.2 0C214.3 0 171.7 0 128.8 0C86 0 43 0 21.5 0L0 0Z" fill="#466665"></path><path d="M0 36L21.5 37C43 38 86 40 128.8 43.2C171.7 46.3 214.3 50.7 257.2 51C300 51.3 343 47.7 385.8 45.3C428.7 43 471.3 42 514.2 38.2C557 34.3 600 27.7 642.8 26.2C685.7 24.7 728.3 28.3 771.2 31C814 33.7 857 35.3 878.5 36.2L900 37L900 0L878.5 0C857 0 814 0 771.2 0C728.3 0 685.7 0 642.8 0C600 0 557 0 514.2 0C471.3 0 428.7 0 385.8 0C343 0 300 0 257.2 0C214.3 0 171.7 0 128.8 0C86 0 43 0 21.5 0L0 0Z" fill="#2e4f4f"></path></svg>