<svg id="visual" viewBox="0 0 900 300" width="900" height="300" xmlns="http://www.w3.org/2000/svg" xmlns:xlink="http://www.w3.org/1999/xlink" version="1.1"><rect x="0" y="0" width="900" height="300" fill="#2C3333"></rect><path d="M0 220L16.7 223C33.3 226 66.7 232 100 228.7C133.3 225.3 166.7 212.7 200 205C233.3 197.3 266.7 194.7 300 190.2C333.3 185.7 366.7 179.3 400 184.8C433.3 190.3 466.7 207.7 500 210.5C533.3 213.3 566.7 201.7 600 201.7C633.3 201.7 666.7 213.3 700 215.8C733.3 218.3 766.7 211.7 800 205.8C833.3 200 866.7 195 883.3 192.5L900 190L900 0L883.3 0C866.7 0 833.3 0 800 0C766.7 0 733.3 0 700 0C666.7 0 633.3 0 600 0C566.7 0 533.3 0 500 0C466.7 0 433.3 0 400 0C366.7 0 333.3 0 300 0C266.7 0 233.3 0 200 0C166.7 0 133.3 0 100 0C66.7 0 33.3 0 16.7 0L0 0Z" fill="#cbe4de"></path><path d="M0 217L16.7 205.7C33.3 194.3 66.7 171.7 100 172.5C133.3 173.3 166.7 197.7 200 202.8C233.3 208 266.7 194 300 193.3C333.3 192.7 366.7 205.3 400 212.5C433.3 219.7 466.7 221.3 500 209.3C533.3 197.3 566.7 171.7 600 166.2C633.3 160.7 666.7 175.3 700 187.7C733.3 200 766.7 210 800 202C833.3 194 866.7 168 883.3 155L900 142L900 0L883.3 0C866.7 0 833.3 0 800 0C766.7 0 733.3 0 700 0C666.7 0 633.3 0 600 0C566.7 0 533.3 0 500 0C466.7 0 433.3 0 400 0C366.7 0 333.3 0 300 0C266.7 0 233.3 0 200 0C166.7 0 133.3 0 100 0C66.7 0 33.3 0 16.7 0L0 0Z" fill="#b3cdc8"></path><path d="M0 188L16.7 187.3C33.3 186.7 66.7 185.3 100 185.8C133.3 186.3 166.7 188.7 200 182.7C233.3 176.7 266.7 162.3 300 157.5C333.3 152.7 366.7 157.3 400 156C433.3 154.7 466.7 147.3 500 150.7C533.3 154 566.7 168 600 167.2C633.3 166.3 666.7 150.7 700 147.8C733.3 145 766.7 155 800 161.7C833.3 168.3 866.7 171.7 883.3 173.3L900 175L900 0L883.3 0C866.7 0 833.3 0 800 0C766.7 0 733.3 0 700 0C666.7 0 633.3 0 600 0C566.7 0 533.3 0 500 0C466.7 0 433.3 0 400 0C366.7 0 333.3 0 300 0C266.7 0 233.3 0 200 0C166.7 0 133.3 0 100 0C66.7 0 33.3 0 16.7 0L0 0Z" fill="#9bb7b2"></path><path d="M0 115L16.7 119C33.3 123 66.7 131 100 132.2C133.3 133.3 166.7 127.7 200 123.5C233.3 119.3 266.7 116.7 300 122.7C333.3 128.7 366.7 143.3 400 151.2C433.3 159 466.7 160 500 150.7C533.3 141.3 566.7 121.7 600 116.2C633.3 110.7 666.7 119.3 700 127C733.3 134.7 766.7 141.3 800 144.5C833.3 147.7 866.7 147.3 883.3 147.2L900 147L900 0L883.3 0C866.7 0 833.3 0 800 0C766.7 0 733.3 0 700 0C666.7 0 633.3 0 600 0C566.7 0 533.3 0 500 0C466.7 0 433.3 0 400 0C366.7 0 333.3 0 300 0C266.7 0 233.3 0 200 0C166.7 0 133.3 0 100 0C66.7 0 33.3 0 16.7 0L0 0Z" fill="#84a19d"></path><path d="M0 97L16.7 94C33.3 91 66.7 85 100 87.3C133.3 89.7 166.7 100.3 200 103.7C233.3 107 266.7 103 300 101C333.3 99 366.7 99 400 100.2C433.3 101.3 466.7 103.7 500 103.7C533.3 103.7 566.7 101.3 600 97.8C633.3 94.3 666.7 89.7 700 93.3C733.3 97 766.7 109 800 115.7C833.3 122.3 866.7 123.7 883.3 124.3L900 125L900 0L883.3 0C866.7 0 833.3 0 800 0C766.7 0 733.3 0 700 0C666.7 0 633.3 0 600 0C566.7 0 533.3 0 500 0C466.7 0 433.3 0 400 0C366.7 0 333.3 0 300 0C266.7 0 233.3 0 200 0C166.7 0 133.3 0 100 0C66.7 0 33.3 0 16.7 0L0 0Z" fill="#6e8b89"></path><path d="M0 58L16.7 59.7C33.3 61.3 66.7 64.7 100 70.5C133.3 76.3 166.7 84.7 200 85.3C233.3 86 266.7 79 300 79C333.3 79 366.7 86 400 85.7C433.3 85.3 466.7 77.7 500 78.7C533.3 79.7 566.7 89.3 600 94.3C633.3 99.3 666.7 99.7 700 93.7C733.3 87.7 766.7 75.3 800 68.8C833.3 62.3 866.7 61.7 883.3 61.3L900 61L900 0L883.3 0C866.7 0 833.3 0 800 0C766.7 0 733.3 0 700 0C666.7 0 633.3 0 600 0C566.7 0 533.3 0 500 0C466.7 0 433.3 0 400 0C366.7 0 333.3 0 300 0C266.7 0 233.3 0 200 0C166.7 0 133.3 0 100 0C66.7 0 33.3 0 16.7 0L0 0Z" fill="#587775"></path><path d="M0 40L16.7 41.2C33.3 42.3 66.7 44.7 100 46.7C133.3 48.7 166.7 50.3 200 55C233.3 59.7 266.7 67.3 300 65.8C333.3 64.3 366.7 53.7 400 48.2C433.3 42.7 466.7 42.3 500 48.2C533.3 54 566.7 66 600 66.5C633.3 67 666.7 56 700 51.2C733.3 46.3 766.7 47.7 800 49.7C833.3 51.7 866.7 54.3 883.3 55.7L900 57L900 0L883.3 0C866.7 0 833.3 0 800 0C766.7 0 733.3 0 700 0C666.7 0 633.3 0 600 0C566.7 0 533.3 0 500 0C466.7 0 433.3 0 400 0C366.7 0 333.3 0 300 0C266.7 0 233.3 0 200 0C166.7 0 133.3 0 100 0C66.7 0 33.3 0 16.7 0L0 0Z" fill="#436262"></path><path d="M0 43L16.7 43.8C33.3 44.7 66.7 46.3 100 42.5C133.3 38.7 166.7 29.3 200 26C233.3 22.7 266.7 25.3 300 25.3C333.3 25.3 366.7 22.7 400 24.3C433.3 26 466.7 32 500 34.3C533.3 36.7 566.7 35.3 600 36.5C633.3 37.7 666.7 41.3 700 42.3C733.3 43.3 766.7 41.7 800 41.8C833.3 42 866.7 44 883.3 45L900 46L900 0L883.3 0C866.7 0 833.3 0 800 0C766.7 0 733.3 0 700 0C666.7 0 633.3 0 600 0C566.7 0 533.3 0 500 0C466.7 0 433.3 0 400 0C366.7 0 333.3 0 300 0C266.7 0 233.3 0 200 0C166.7 0 133.3 0 100 0C66.7 0 33.3 0 16.7 0L0 0Z" fill="#2e4f4f"></path></svg>