<svg id="visual" viewBox="0 0 900 300" width="900" height="300" xmlns="http://www.w3.org/2000/svg" xmlns:xlink="http://www.w3.org/1999/xlink" version="1.1"><rect x="0" y="0" width="900" height="300" fill="#2C3333"></rect><path d="M0 72L21.5 81.3C43 90.7 86 109.3 128.8 110.3C171.7 111.3 214.3 94.7 257.2 94.7C300 94.7 343 111.3 385.8 121.5C428.7 131.7 471.3 135.3 514.2 126.2C557 117 600 95 642.8 80.7C685.7 66.3 728.3 59.7 771.2 67C814 74.3 857 95.7 878.5 106.3L900 117L900 301L878.5 301C857 301 814 301 771.2 301C728.3 301 685.7 301 642.8 301C600 301 557 301 514.2 301C471.3 301 428.7 301 385.8 301C343 301 300 301 257.2 301C214.3 301 171.7 301 128.8 301C86 301 43 301 21.5 301L0 301Z" fill="#cbe4de"></path><path d="M0 111L21.5 115.5C43 120 86 129 128.8 134.2C171.7 139.3 214.3 140.7 257.2 133.5C300 126.3 343 110.7 385.8 101.7C428.7 92.7 471.3 90.3 514.2 92.5C557 94.7 600 101.3 642.8 111C685.7 120.7 728.3 133.3 771.2 130.7C814 128 857 110 878.5 101L900 92L900 301L878.5 301C857 301 814 301 771.2 301C728.3 301 685.7 301 642.8 301C600 301 557 301 514.2 301C471.3 301 428.7 301 385.8 301C343 301 300 301 257.2 301C214.3 301 171.7 301 128.8 301C86 301 43 301 21.5 301L0 301Z" fill="#afc9c4"></path><path d="M0 135L21.5 143C43 151 86 167 128.8 173.2C171.7 179.3 214.3 175.7 257.2 166.3C300 157 343 142 385.8 135.8C428.7 129.7 471.3 132.3 514.2 139.7C557 147 600 159 642.8 156.8C685.7 154.7 728.3 138.3 771.2 138.7C814 139 857 156 878.5 164.5L900 173L900 301L878.5 301C857 301 814 301 771.2 301C728.3 301 685.7 301 642.8 301C600 301 557 301 514.2 301C471.3 301 428.7 301 385.8 301C343 301 300 301 257.2 301C214.3 301 171.7 301 128.8 301C86 301 43 301 21.5 301L0 301Z" fill="#94afab"></path><path d="M0 146L21.5 146.5C43 147 86 148 128.8 158.5C171.7 169 214.3 189 257.2 194.3C300 199.7 343 190.3 385.8 181.2C428.7 172 471.3 163 514.2 157.7C557 152.3 600 150.7 642.8 155.3C685.7 160 728.3 171 771.2 176C814 181 857 180 878.5 179.5L900 179L900 301L878.5 301C857 301 814 301 771.2 301C728.3 301 685.7 301 642.8 301C600 301 557 301 514.2 301C471.3 301 428.7 301 385.8 301C343 301 300 301 257.2 301C214.3 301 171.7 301 128.8 301C86 301 43 301 21.5 301L0 301Z" fill="#799693"></path><path d="M0 202L21.5 199C43 196 86 190 128.8 191.3C171.7 192.7 214.3 201.3 257.2 203.8C300 206.3 343 202.7 385.8 199.3C428.7 196 471.3 193 514.2 191C557 189 600 188 642.8 187.5C685.7 187 728.3 187 771.2 187.5C814 188 857 189 878.5 189.5L900 190L900 301L878.5 301C857 301 814 301 771.2 301C728.3 301 685.7 301 642.8 301C600 301 557 301 514.2 301C471.3 301 428.7 301 385.8 301C343 301 300 301 257.2 301C214.3 301 171.7 301 128.8 301C86 301 43 301 21.5 301L0 301Z" fill="#5f7e7b"></path><path d="M0 244L21.5 242.8C43 241.7 86 239.3 128.8 236.5C171.7 233.7 214.3 230.3 257.2 232.8C300 235.3 343 243.7 385.8 241.5C428.7 239.3 471.3 226.7 514.2 224.7C557 222.7 600 231.3 642.8 233.8C685.7 236.3 728.3 232.7 771.2 232C814 231.3 857 233.7 878.5 234.8L900 236L900 301L878.5 301C857 301 814 301 771.2 301C728.3 301 685.7 301 642.8 301C600 301 557 301 514.2 301C471.3 301 428.7 301 385.8 301C343 301 300 301 257.2 301C214.3 301 171.7 301 128.8 301C86 301 43 301 21.5 301L0 301Z" fill="#466665"></path><path d="M0 250L21.5 255C43 260 86 270 128.8 269.3C171.7 268.7 214.3 257.3 257.2 254.2C300 251 343 256 385.8 255.7C428.7 255.3 471.3 249.7 514.2 250.2C557 250.7 600 257.3 642.8 261.3C685.7 265.3 728.3 266.7 771.2 268.5C814 270.3 857 272.7 878.5 273.8L900 275L900 301L878.5 301C857 301 814 301 771.2 301C728.3 301 685.7 301 642.8 301C600 301 557 301 514.2 301C471.3 301 428.7 301 385.8 301C343 301 300 301 257.2 301C214.3 301 171.7 301 128.8 301C86 301 43 301 21.5 301L0 301Z" fill="#2e4f4f"></path></svg>